<svg xmlns="http://www.w3.org/2000/svg" xmlns:xlink="http://www.w3.org/1999/xlink" width="23.377" height="14.297" viewBox="0 0 23.377 14.297">
  <defs>
    <clipPath id="clip-path">
      <rect width="23.377" height="14.297" fill="none"/>
    </clipPath>
  </defs>
  <g id="Repeat_Grid_1" data-name="Repeat Grid 1" clip-path="url(#clip-path)">
    <g transform="translate(-316.622 -24.293)">
      <path id="Union_57" data-name="Union 57" d="M-446.73,1395.3a1.488,1.488,0,0,1-1.505-1.467,1.488,1.488,0,0,1,1.505-1.467h15.6a1.488,1.488,0,0,1,1.505,1.467,1.488,1.488,0,0,1-1.505,1.467Zm-4.764-5.68A1.488,1.488,0,0,1-453,1388.15a1.488,1.488,0,0,1,1.505-1.467h20.367a1.488,1.488,0,0,1,1.505,1.467,1.488,1.488,0,0,1-1.505,1.467Zm0-5.682a1.488,1.488,0,0,1-1.505-1.467,1.489,1.489,0,0,1,1.505-1.468h20.367a1.489,1.489,0,0,1,1.505,1.468,1.488,1.488,0,0,1-1.505,1.467Z" transform="translate(769.622 -1356.707)" fill="#4a4a4a"/>
    </g>
  </g>
</svg>
