<svg id="Group_3092" data-name="Group 3092" xmlns="http://www.w3.org/2000/svg" width="24.296" height="28.345" viewBox="0 0 24.296 28.345">
  <path id="Path_90" data-name="Path 90" d="M26.427,14.986,16.851,4.163a.924.924,0,0,0-.088-.087.942.942,0,0,0-1.319.087L5.869,14.986V28.5h5.607V21.106a1.858,1.858,0,0,1,1.869-1.848h5.607a1.858,1.858,0,0,1,1.869,1.848V28.5h5.607ZM18.258,2.947,28.065,14.03a.918.918,0,0,1,.231.608V28.5a1.858,1.858,0,0,1-1.869,1.848H20.82A1.858,1.858,0,0,1,18.951,28.5V21.106H13.345V28.5a1.858,1.858,0,0,1-1.869,1.848H5.869A1.858,1.858,0,0,1,4,28.5V14.639a.918.918,0,0,1,.231-.608L14.038,2.947a2.826,2.826,0,0,1,3.956-.261A2.776,2.776,0,0,1,18.258,2.947Z" transform="translate(-4 -2)" fill="currentColor"/>
</svg>
