<svg id="Group_3091" data-name="Group 3091" xmlns="http://www.w3.org/2000/svg" width="28.534" height="26.295" viewBox="0 0 28.534 26.295">
  <path id="Path_96" data-name="Path 96" d="M14.874,14.917H36.622A1.751,1.751,0,0,1,38.4,16.684V30.975a1.753,1.753,0,0,1-1.781,1.769H16.783a.805.805,0,0,0-.614.282L13.1,36.619V16.684A1.75,1.75,0,0,1,14.874,14.917Zm0-1.606a3.4,3.4,0,0,0-3.393,3.373V38.8a.807.807,0,0,0,1.421.521l4.251-4.973H36.622a3.393,3.393,0,0,0,3.393-3.373V16.684a3.394,3.394,0,0,0-3.393-3.373H14.874Z" transform="translate(-11.481 -13.311)" fill="#currentColor"/>
  <path id="Path_97" data-name="Path 97" d="M22.619,31.2a.8.8,0,1,0,0,1.6H40.735a.8.8,0,1,0,0-1.6H22.619Z" transform="translate(-17.409 -23.589)" fill="#currentColor"/>
  <path id="Path_98" data-name="Path 98" d="M22.619,43.321a.8.8,0,1,0,0,1.605h8.11a.8.8,0,1,0,0-1.605Z" transform="translate(-17.409 -30.549)" fill="#currentColor"/>
</svg>
