<svg id="Group_3090" data-name="Group 3090" xmlns="http://www.w3.org/2000/svg" width="26.438" height="31.471" viewBox="0 0 26.438 31.471">
  <path id="Union_60" data-name="Union 60" d="M13.208,29.411a18.089,18.089,0,0,0,6.537-3.874,13.68,13.68,0,0,0,3.348-5.177c1.453-3.9,1.382-8.282,1.319-12.153V8.142c-.021-.545-.029-1.068-.032-1.577A17.063,17.063,0,0,1,13.207,2.324,17.131,17.131,0,0,1,2.068,6.537c0,.512-.01,1.042-.031,1.606-.078,3.878-.167,8.273,1.277,12.182a13.662,13.662,0,0,0,3.342,5.2,18.066,18.066,0,0,0,6.553,3.889m0,2.06a1.349,1.349,0,0,1-.353-.064C-.348,26.846-.123,16.021.038,8.087.07,7.219.07,6.417.07,5.646A1.083,1.083,0,0,1,1.162,4.554c4.69,0,8.287-1.349,11.275-4.24a1.106,1.106,0,0,1,1.542,0c2.987,2.891,6.585,4.24,11.306,4.272a1.083,1.083,0,0,1,1.092,1.092c0,.771,0,1.574.033,2.409.128,7.934.353,18.759-12.849,23.32A1.142,1.142,0,0,1,13.207,31.471Z" transform="translate(0 0)" fill="#currentColor"/>
  <path id="Path_92" data-name="Path 92" d="M41.915,37.383l-5.368,5.368-2.31-2.31a1.127,1.127,0,0,0-1.594,1.594l3.091,3.091a1.057,1.057,0,0,0,.781.325,1.009,1.009,0,0,0,.781-.325l6.182-6.182a1.16,1.16,0,0,0,0-1.594A1.091,1.091,0,0,0,41.915,37.383Z" transform="translate(-24.887 -25.532)" fill="#currentColor"/>
</svg>
